<?xml version="1.0" encoding="utf-8"?>
<!-- Generator: Adobe Illustrator 16.0.0, SVG Export Plug-In . SVG Version: 6.00 Build 0)  -->
<!DOCTYPE svg PUBLIC "-//W3C//DTD SVG 1.1//EN" "http://www.w3.org/Graphics/SVG/1.1/DTD/svg11.dtd">
<svg version="1.1" id="Warstwa_1" xmlns="http://www.w3.org/2000/svg" xmlns:xlink="http://www.w3.org/1999/xlink" x="0px" y="0px"
	 width="1013px" height="410px" viewBox="44.5 309.5 1013 410" enable-background="new 44.5 309.5 1013 410" xml:space="preserve">
<g>
	<path fill="#F4F4F4" d="M353.503,323.918H87.749c-12.231,0-22.146,9.916-22.146,22.146v341.052
		c0,12.231,9.915,22.146,22.146,22.146h265.754c12.231,0,22.146-9.915,22.146-22.146V346.064
		C375.649,333.834,365.734,323.918,353.503,323.918z M343.111,564.881c-0.013,0.273,0.003,0.544-0.016,0.82
		c-0.013,0.178-0.035,0.351-0.048,0.529l-0.029,0.319c-4.84,63.688-58.434,113.457-122.41,113.457
		c-67.698,0-122.778-55.082-122.778-122.778c0-14.237,11.543-25.78,25.781-25.78c14.237,0,25.78,11.542,25.78,25.78
		c0,39.27,31.948,71.22,71.22,71.22c33.557,0,62.12-23.626,69.371-55.457l-87.607-87.606c-10.067-10.067-10.067-26.389,0-36.457
		c10.07-10.066,26.389-10.066,36.46,0l96.764,96.764c0.197,0.196,0.361,0.406,0.548,0.606c0.316,0.338,0.632,0.674,0.928,1.028
		c0.278,0.328,0.532,0.664,0.79,0.999c0.248,0.326,0.492,0.651,0.724,0.986c0.258,0.374,0.5,0.754,0.735,1.138
		c0.199,0.325,0.396,0.654,0.583,0.989c0.219,0.399,0.425,0.799,0.622,1.204c0.174,0.351,0.341,0.706,0.496,1.066
		c0.171,0.397,0.328,0.793,0.477,1.192c0.148,0.396,0.287,0.79,0.416,1.191c0.12,0.385,0.229,0.765,0.333,1.15
		c0.115,0.429,0.222,0.861,0.316,1.3c0.08,0.38,0.145,0.76,0.209,1.14c0.075,0.442,0.142,0.887,0.194,1.335
		c0.045,0.406,0.074,0.812,0.099,1.218c0.029,0.422,0.055,0.845,0.061,1.27l0.009,0.008
		C343.147,563.972,343.13,564.431,343.111,564.881z M317.613,499.89c-14.237,0-25.781-11.543-25.781-25.78
		c0-39.271-31.948-71.221-71.22-71.221c-33.557,0-62.121,23.627-69.371,55.457l87.607,87.607c10.067,10.066,10.067,26.389,0,36.456
		c-5.034,5.034-11.63,7.551-18.229,7.551s-13.196-2.517-18.229-7.551l-96.764-96.764c-0.197-0.196-0.361-0.406-0.548-0.605
		c-0.316-0.34-0.632-0.674-0.929-1.028c-0.277-0.329-0.531-0.664-0.79-0.999c-0.248-0.326-0.493-0.651-0.725-0.986
		c-0.258-0.374-0.5-0.754-0.735-1.137c-0.2-0.326-0.396-0.655-0.583-0.99c-0.219-0.399-0.425-0.799-0.622-1.205
		c-0.174-0.354-0.338-0.706-0.496-1.066c-0.171-0.393-0.328-0.793-0.477-1.192c-0.148-0.393-0.287-0.785-0.416-1.188
		c-0.122-0.379-0.232-0.763-0.335-1.149c-0.116-0.433-0.222-0.86-0.316-1.299c-0.081-0.381-0.146-0.761-0.21-1.141
		c-0.074-0.442-0.142-0.887-0.193-1.335c-0.045-0.405-0.074-0.812-0.1-1.217c-0.029-0.423-0.054-0.845-0.061-1.271l-0.009-0.008
		c-0.01-0.457,0.01-0.92,0.029-1.371c0.013-0.273-0.003-0.544,0.016-0.821c0.013-0.177,0.035-0.352,0.048-0.528l0.029-0.319
		c4.84-63.688,58.434-113.457,122.41-113.457c67.698,0,122.778,55.081,122.778,122.778
		C343.394,488.346,331.85,499.89,317.613,499.89z"/>
	<path vector-effect="non-scaling-stroke" fill="#F4F4F4" d="M473.672,561.243c5.736,0,10.387,4.65,10.387,10.387
		s-4.651,10.387-10.386,10.387c-27.275,0-49.467-22.191-49.467-49.467v-72.575c0-5.734,4.651-10.386,10.386-10.386
		c5.737,0,10.387,4.651,10.387,10.386v24.697h28.692c5.736,0,10.386,4.65,10.386,10.386s-4.651,10.387-10.386,10.387h-28.692v27.105
		C444.979,548.371,457.85,561.243,473.672,561.243L473.672,561.243z M541.881,484.904c26.775,0,48.559,21.782,48.559,48.558v38.17
		c0,5.736-4.65,10.387-10.386,10.387s-10.386-4.65-10.386-10.387v-38.17c0-15.319-12.464-27.783-27.783-27.783
		s-27.783,12.464-27.783,27.783v38.17c0,5.736-4.65,10.387-10.386,10.387c-5.736,0-10.387-4.65-10.387-10.387V459.977
		c0-5.735,4.65-10.386,10.387-10.386c5.735,0,10.386,4.65,10.386,10.386v33.696c7.878-5.519,17.455-8.77,27.783-8.77H541.881z
		 M648.205,484.644c26.848,0,48.688,21.839,48.688,48.686c0,5.735-4.65,10.386-10.387,10.386h-64.208
		c4.129,10.263,14.187,17.527,25.91,17.527c7.456,0,14.466-2.903,19.737-8.175c4.057-4.058,10.631-4.056,14.688,0
		c4.058,4.057,4.057,10.633,0,14.688c-9.196,9.195-21.423,14.259-34.427,14.259c-26.847,0-48.686-21.839-48.686-48.686
		s21.839-48.686,48.686-48.686H648.205z M622.296,522.944h51.821c-4.128-10.264-14.186-17.527-25.91-17.527
		S626.425,512.68,622.296,522.944L622.296,522.944z M793.081,484.644c5.736,0,10.386,4.649,10.386,10.386v76.6
		c0,5.736-4.65,10.386-10.386,10.386c-5.236,0-9.554-3.877-10.271-8.915c-7.932,5.607-17.599,8.915-28.029,8.915
		c-26.847,0-48.686-21.839-48.686-48.686s21.839-48.686,48.686-48.686c10.431,0,20.097,3.307,28.029,8.915
		C783.527,488.52,787.845,484.644,793.081,484.644z M754.781,561.243c15.391,0,27.914-12.521,27.914-27.913
		c0-15.393-12.521-27.914-27.914-27.914c-15.392,0-27.914,12.521-27.914,27.914C726.867,548.721,739.39,561.243,754.781,561.243z
		 M862.137,561.243c5.736,0,10.387,4.65,10.387,10.387s-4.65,10.387-10.387,10.387c-27.273,0-49.466-22.191-49.466-49.467v-72.575
		c0-5.734,4.65-10.386,10.387-10.386c5.735,0,10.386,4.651,10.386,10.386v24.697h28.692c5.735,0,10.387,4.65,10.387,10.386
		s-4.651,10.387-10.387,10.387h-28.692v27.105C833.443,548.371,846.314,561.243,862.137,561.243L862.137,561.243z M930.474,484.644
		c5.735,0,10.386,4.649,10.386,10.386c0,5.735-4.65,10.386-10.386,10.386c-15.392,0-27.913,12.521-27.913,27.914v38.3
		c0,5.736-4.65,10.386-10.387,10.386c-5.735,0-10.386-4.65-10.386-10.386v-76.6c0-5.736,4.65-10.386,10.386-10.386
		c5.236,0,9.555,3.877,10.271,8.915C910.376,487.951,920.043,484.644,930.474,484.644z M989.187,484.644
		c26.846,0,48.686,21.839,48.686,48.686c0,5.735-4.65,10.386-10.386,10.386h-64.208c4.128,10.263,14.186,17.527,25.909,17.527
		c7.457,0,14.466-2.903,19.738-8.175c4.057-4.058,10.632-4.056,14.688,0c4.058,4.057,4.056,10.633,0,14.688
		c-9.197,9.195-21.423,14.259-34.428,14.259c-26.847,0-48.685-21.839-48.685-48.686S962.34,484.644,989.187,484.644L989.187,484.644
		z M963.275,522.944h51.822c-4.129-10.264-14.187-17.527-25.911-17.527C977.463,505.417,967.405,512.68,963.275,522.944
		L963.275,522.944z"/>
</g>
</svg>
