<?xml version="1.0" encoding="utf-8"?>
<!-- Generator: Adobe Illustrator 16.0.0, SVG Export Plug-In . SVG Version: 6.00 Build 0)  -->
<!DOCTYPE svg PUBLIC "-//W3C//DTD SVG 1.1//EN" "http://www.w3.org/Graphics/SVG/1.1/DTD/svg11.dtd">
<svg version="1.1" id="Warstwa_1" xmlns="http://www.w3.org/2000/svg" xmlns:xlink="http://www.w3.org/1999/xlink" x="0px" y="0px"
	 width="1013px" height="410px" viewBox="0 0 1013 410" enable-background="new 0 0 1013 410" xml:space="preserve">
<g>
	<path fill="#06B6D4" d="M308.265,15.918H42.511c-12.231,0-22.146,9.916-22.146,22.146v341.051c0,12.232,9.915,22.146,22.146,22.146
		h265.754c12.231,0,22.146-9.914,22.146-22.146V38.064C330.411,25.834,320.496,15.918,308.265,15.918z M297.873,256.881
		c-0.014,0.273,0.003,0.545-0.017,0.82c-0.013,0.178-0.035,0.352-0.048,0.529l-0.029,0.318
		c-4.84,63.688-58.434,113.457-122.41,113.457c-67.698,0-122.778-55.082-122.778-122.777c0-14.238,11.543-25.781,25.781-25.781
		c14.237,0,25.78,11.543,25.78,25.781c0,39.27,31.948,71.219,71.22,71.219c33.557,0,62.12-23.625,69.371-55.457l-87.607-87.605
		c-10.067-10.066-10.067-26.389,0-36.457c10.07-10.066,26.389-10.066,36.46,0l96.764,96.764c0.197,0.197,0.361,0.406,0.549,0.607
		c0.315,0.338,0.632,0.674,0.928,1.027c0.277,0.328,0.532,0.664,0.79,0.998c0.248,0.326,0.492,0.652,0.724,0.986
		c0.258,0.375,0.5,0.754,0.735,1.139c0.199,0.324,0.396,0.654,0.583,0.988c0.219,0.4,0.425,0.799,0.622,1.205
		c0.174,0.35,0.341,0.705,0.496,1.066c0.171,0.396,0.327,0.793,0.477,1.191c0.148,0.396,0.287,0.789,0.416,1.191
		c0.12,0.385,0.229,0.764,0.333,1.148c0.115,0.43,0.222,0.861,0.316,1.301c0.08,0.381,0.145,0.76,0.209,1.141
		c0.074,0.441,0.142,0.887,0.193,1.334c0.045,0.406,0.074,0.813,0.1,1.219c0.028,0.422,0.055,0.844,0.061,1.27l0.009,0.008
		C297.909,255.973,297.892,256.432,297.873,256.881z M272.375,191.891c-14.237,0-25.781-11.543-25.781-25.781
		c0-39.27-31.948-71.221-71.22-71.221c-33.557,0-62.121,23.627-69.371,55.457l87.607,87.607c10.067,10.066,10.067,26.389,0,36.455
		c-5.034,5.035-11.63,7.553-18.229,7.553c-6.599,0-13.196-2.518-18.229-7.553l-96.764-96.764c-0.197-0.195-0.361-0.406-0.548-0.605
		c-0.316-0.34-0.632-0.674-0.929-1.027c-0.277-0.328-0.531-0.664-0.79-0.998c-0.248-0.326-0.493-0.652-0.725-0.986
		c-0.258-0.375-0.5-0.754-0.735-1.137c-0.2-0.326-0.396-0.656-0.583-0.99c-0.219-0.398-0.425-0.799-0.622-1.205
		c-0.174-0.354-0.338-0.707-0.496-1.066c-0.171-0.393-0.328-0.793-0.477-1.191c-0.148-0.393-0.287-0.785-0.416-1.188
		c-0.122-0.381-0.232-0.764-0.335-1.15c-0.116-0.432-0.222-0.859-0.316-1.299c-0.081-0.381-0.146-0.76-0.21-1.141
		c-0.074-0.441-0.142-0.887-0.193-1.336c-0.045-0.404-0.074-0.811-0.1-1.217c-0.029-0.422-0.054-0.844-0.061-1.27l-0.009-0.01
		c-0.01-0.457,0.01-0.92,0.029-1.369c0.013-0.273-0.003-0.545,0.016-0.822c0.013-0.176,0.035-0.352,0.048-0.527l0.029-0.32
		c4.84-63.688,58.434-113.456,122.41-113.456c67.698,0,122.778,55.081,122.778,122.778
		C298.155,180.346,286.611,191.891,272.375,191.891z"/>
	<path vector-effect="non-scaling-stroke" fill="#06B6D4" d="M428.434,253.242c5.736,0,10.387,4.65,10.387,10.389
		c0,5.736-4.65,10.387-10.386,10.387c-27.274,0-49.467-22.191-49.467-49.467v-72.576c0-5.734,4.651-10.385,10.386-10.385
		c5.737,0,10.387,4.65,10.387,10.385v24.697h28.692c5.736,0,10.386,4.65,10.386,10.387s-4.65,10.387-10.386,10.387H399.74v27.105
		C399.741,240.371,412.611,253.242,428.434,253.242L428.434,253.242z M496.643,176.904c26.775,0,48.56,21.781,48.56,48.559v38.17
		c0,5.734-4.65,10.387-10.387,10.387c-5.735,0-10.386-4.65-10.386-10.387v-38.17c0-15.32-12.464-27.783-27.783-27.783
		c-15.318,0-27.783,12.463-27.783,27.783v38.17c0,5.734-4.649,10.387-10.386,10.387c-5.735,0-10.387-4.65-10.387-10.387V151.977
		c0-5.734,4.65-10.385,10.387-10.385c5.735,0,10.386,4.648,10.386,10.385v33.697c7.878-5.52,17.455-8.771,27.783-8.771h-0.004
		V176.904z M602.967,176.645c26.848,0,48.688,21.838,48.688,48.686c0,5.734-4.649,10.387-10.387,10.387H577.06
		c4.129,10.262,14.188,17.525,25.91,17.525c7.456,0,14.466-2.902,19.737-8.174c4.057-4.059,10.631-4.057,14.688,0
		c4.058,4.057,4.058,10.633,0,14.688c-9.196,9.195-21.423,14.26-34.427,14.26c-26.847,0-48.687-21.84-48.687-48.688
		c0-26.846,21.84-48.686,48.687-48.686h-0.001V176.645z M577.058,214.943h51.821c-4.128-10.264-14.187-17.527-25.91-17.527
		S581.187,204.68,577.058,214.943L577.058,214.943z M747.843,176.645c5.736,0,10.386,4.648,10.386,10.385v76.602
		c0,5.734-4.649,10.385-10.386,10.385c-5.236,0-9.554-3.877-10.271-8.914c-7.932,5.607-17.599,8.914-28.028,8.914
		c-26.848,0-48.687-21.838-48.687-48.686s21.839-48.686,48.687-48.686c10.431,0,20.097,3.307,28.028,8.914
		C738.289,180.52,742.606,176.645,747.843,176.645z M709.543,253.242c15.391,0,27.914-12.52,27.914-27.912
		s-12.521-27.914-27.914-27.914s-27.914,12.521-27.914,27.914C681.629,240.721,694.151,253.242,709.543,253.242z M816.898,253.242
		c5.736,0,10.388,4.65,10.388,10.389c0,5.736-4.65,10.387-10.388,10.387c-27.272,0-49.466-22.191-49.466-49.467v-72.576
		c0-5.734,4.65-10.385,10.387-10.385c5.735,0,10.387,4.65,10.387,10.385v24.697h28.691c5.735,0,10.388,4.65,10.388,10.387
		s-4.651,10.387-10.388,10.387h-28.691v27.105C788.205,240.371,801.076,253.242,816.898,253.242L816.898,253.242z M885.235,176.645
		c5.735,0,10.387,4.648,10.387,10.385s-4.65,10.387-10.387,10.387c-15.392,0-27.913,12.521-27.913,27.914v38.301
		c0,5.734-4.649,10.385-10.387,10.385c-5.735,0-10.386-4.65-10.386-10.385v-76.602c0-5.734,4.65-10.385,10.386-10.385
		c5.236,0,9.555,3.877,10.271,8.914C865.138,179.951,874.805,176.645,885.235,176.645z M943.948,176.645
		c26.847,0,48.687,21.838,48.687,48.686c0,5.734-4.65,10.387-10.386,10.387h-64.208c4.128,10.262,14.186,17.525,25.909,17.525
		c7.457,0,14.466-2.902,19.737-8.174c4.058-4.059,10.632-4.057,14.688,0c4.058,4.057,4.056,10.633,0,14.688
		c-9.197,9.195-21.423,14.26-34.428,14.26c-26.848,0-48.686-21.84-48.686-48.688C895.263,198.482,917.102,176.645,943.948,176.645
		L943.948,176.645z M918.037,214.943h51.821c-4.129-10.264-14.187-17.527-25.91-17.527
		C932.225,197.418,922.167,204.68,918.037,214.943L918.037,214.943z"/>
</g>
</svg>
